<svg viewBox="0 -180 200 180" xmlns="http://www.w3.org/2000/svg"><g fill="none" stroke="#000" stroke-width=".25mm" transform="scale(1 -1)"><circle cx="43" cy="170" r="2"/><circle cx="53" cy="170" r="2"/><circle cx="167" cy="170" r="2"/><circle cx="157" cy="170" r="2"/><circle cx="147" cy="170" r="2"/><circle cx="33" cy="170" r="2"/><circle cx="195" cy="53" r="1.525"/><circle cx="185" cy="100" r="1.525"/><circle cx="15" cy="100" r="1.525"/><circle cx="48" cy="5" r="1.525"/><circle cx="152" cy="5" r="1.525"/><circle cx="5" cy="53" r="1.525"/><circle cx="32" cy="150.5" r="2"/><circle cx="168" cy="134.5" r="2"/><circle cx="154" cy="134.5" r="2"/><circle cx="154" cy="150.5" r="2"/><circle cx="168" cy="150.5" r="2"/><circle cx="32" cy="134.5" r="2"/><circle cx="46" cy="134.5" r="2"/><circle cx="46" cy="150.5" r="2"/><circle cx="153" cy="80" r="1.525"/><circle cx="68" cy="132" r="1.525"/><circle cx="132" cy="132" r="1.525"/><circle cx="47" cy="80" r="1.525"/><circle cx="37" cy="162" r="1.525"/><circle cx="165" cy="23" r="1.525"/><circle cx="163" cy="162" r="1.525"/><circle cx="15" cy="85" r="1.525"/><circle cx="185" cy="85" r="1.525"/><circle cx="35" cy="23" r="1.525"/><circle cx="68" cy="45" r="1.525"/><circle cx="132" cy="45" r="1.525"/><circle cx="132" cy="5" r="1.525"/><circle cx="68" cy="5" r="1.525"/><path d="m116 7.5v-2.5"/><path d="m106 7.5h10"/><path d="m106 5v2.5"/><path d="m116 5h-10"/><path d="m82 7.5h10"/><path d="m82 5v2.5"/><path d="m92 5h-10"/><path d="m92 7.5v-2.5"/><path d="m80 23v-7"/><path d="m80 16h40"/><path d="m120 16v7"/><path d="m120 23h-40"/><path d="m23 180h154"/><path d="m177 180v-75"/><path d="m177 105h23"/><path d="m200 105v-73.748575"/><path d="m160 0 40 31.251425"/><path d="m160 0h-120"/><path d="m0 31.251425 40-31.251425"/><path d="m0 31.251425v73.748575"/><path d="m0 105h23"/><path d="m23 105v75"/><path d="m192.5 100v-9"/><path d="m192.5 91h2.5"/><path d="m195 91v9"/><path d="m195 100h-2.5"/><path d="m5 78h2.5"/><path d="m7.5 78v9"/><path d="m7.5 87h-2.5"/><path d="m5 87v-9"/><path d="m5 100v-9"/><path d="m5 91h2.5"/><path d="m7.5 91v9"/><path d="m7.5 100h-2.5"/><path d="m192.5 78h2.5"/><path d="m195 78v9"/><path d="m195 87h-2.5"/><path d="m192.5 87v-9"/><path d="m161 117.5v5"/><path d="m161 122.5h-20"/><path d="m141 122.5v-5"/><path d="m141 117.5h20"/><path d="m39 122.5v-5"/><path d="m39 117.5h20"/><path d="m59 117.5v5"/><path d="m59 122.5h-20"/><path d="m145 102v-12"/><path d="m145 90h5"/><path d="m150 90v12"/><path d="m150 102h-5"/></g></svg>