<?xml version="1.0" encoding="UTF-8" ?>
 <svg viewBox="0 -180  200 180" xmlns="http://www.w3.org/2000/svg" version="1.0" overflow="visible">
  <defs>
   <g id="ID__#42_Model_Space"/>
   <g id="ID__#42_Paper_Space0"/>
   <g id="ID__#42_Paper_Space"/>
  </defs>
  <g id="draft" transform="matrix(1 0 0 -1 0 0)" stroke-width="0.0475">
   <g id="ID_0" color="rgb(0,0,0)" stroke="currentColor" fill="none" stroke-width="0.0475">
    <circle cx="43" cy="170" r="2" color="rgb(0,0,0)" stroke="currentColor" id="ID_99" stroke-width="0.25mm"/>
    <circle cx="53" cy="170" r="1.999999999998167" color="rgb(0,0,0)" stroke="currentColor" id="ID_9A" stroke-width="0.25mm"/>
    <circle cx="167" cy="170" r="2.000000000000057" color="rgb(0,0,0)" stroke="currentColor" id="ID_9B" stroke-width="0.25mm"/>
    <circle cx="157" cy="170" r="2" color="rgb(0,0,0)" stroke="currentColor" id="ID_9C" stroke-width="0.25mm"/>
    <circle cx="147" cy="170" r="2" color="rgb(0,0,0)" stroke="currentColor" id="ID_9D" stroke-width="0.25mm"/>
    <circle cx="33" cy="170" r="2.000000000000007" color="rgb(0,0,0)" stroke="currentColor" id="ID_9E" stroke-width="0.25mm"/>
    <circle cx="195" cy="53" r="1.525000000000006" color="rgb(0,0,0)" stroke="currentColor" id="A7" stroke-width="0.25mm"/>
    <circle cx="185" cy="100" r="1.524999999999949" color="rgb(0,0,0)" stroke="currentColor" id="A8" stroke-width="0.25mm"/>
    <circle cx="15" cy="100" r="1.525000000000034" color="rgb(0,0,0)" stroke="currentColor" id="A9" stroke-width="0.25mm"/>
    <circle cx="48" cy="5" r="1.524999999999991" color="rgb(0,0,0)" stroke="currentColor" id="AA" stroke-width="0.25mm"/>
    <circle cx="152" cy="5" r="1.525000000000006" color="rgb(0,0,0)" stroke="currentColor" id="AB" stroke-width="0.25mm"/>
    <circle cx="5" cy="53" r="1.524999999999991" color="rgb(0,0,0)" stroke="currentColor" id="AC" stroke-width="0.25mm"/>
    <circle cx="32" cy="150.5" r="2.000000000000028" color="rgb(0,0,0)" stroke="currentColor" id="AD" stroke-width="0.25mm"/>
    <circle cx="168" cy="134.5" r="2" color="rgb(0,0,0)" stroke="currentColor" id="AE" stroke-width="0.25mm"/>
    <circle cx="154" cy="134.5" r="2.000000000000057" color="rgb(0,0,0)" stroke="currentColor" id="AF" stroke-width="0.25mm"/>
    <circle cx="154" cy="150.5" r="2" color="rgb(0,0,0)" stroke="currentColor" id="B0" stroke-width="0.25mm"/>
    <circle cx="168" cy="150.5" r="2" color="rgb(0,0,0)" stroke="currentColor" id="B1" stroke-width="0.25mm"/>
    <circle cx="32" cy="134.5" r="2" color="rgb(0,0,0)" stroke="currentColor" id="B2" stroke-width="0.25mm"/>
    <circle cx="46" cy="134.5" r="2" color="rgb(0,0,0)" stroke="currentColor" id="B3" stroke-width="0.25mm"/>
    <circle cx="46" cy="150.5" r="2.000000000000199" color="rgb(0,0,0)" stroke="currentColor" id="B4" stroke-width="0.25mm"/>
    <circle cx="153" cy="80" r="1.524999999999977" color="rgb(0,0,0)" stroke="currentColor" id="B9" stroke-width="0.25mm"/>
    <circle cx="68" cy="132" r="1.524999999999991" color="rgb(0,0,0)" stroke="currentColor" id="BA" stroke-width="0.25mm"/>
    <circle cx="132" cy="132" r="1.524999999999949" color="rgb(0,0,0)" stroke="currentColor" id="BB" stroke-width="0.25mm"/>
    <circle cx="47" cy="80" r="1.524999999999999" color="rgb(0,0,0)" stroke="currentColor" id="BC" stroke-width="0.25mm"/>
    <circle cx="37" cy="162" r="1.525000000000013" color="rgb(0,0,0)" stroke="currentColor" id="BD" stroke-width="0.25mm"/>
    <circle cx="165" cy="23" r="1.525000000000006" color="rgb(0,0,0)" stroke="currentColor" id="BE" stroke-width="0.25mm"/>
    <circle cx="163" cy="162" r="1.524999999999949" color="rgb(0,0,0)" stroke="currentColor" id="BF" stroke-width="0.25mm"/>
    <circle cx="15" cy="85" r="1.524999999999997" color="rgb(0,0,0)" stroke="currentColor" id="C0" stroke-width="0.25mm"/>
    <circle cx="185" cy="85" r="1.525000000000006" color="rgb(0,0,0)" stroke="currentColor" id="C1" stroke-width="0.25mm"/>
    <circle cx="35" cy="23" r="1.524999999999999" color="rgb(0,0,0)" stroke="currentColor" id="C2" stroke-width="0.25mm"/>
    <circle cx="68" cy="45" r="1.524999999999991" color="rgb(0,0,0)" stroke="currentColor" id="C3" stroke-width="0.25mm"/>
    <circle cx="132" cy="45" r="1.525000000000006" color="rgb(0,0,0)" stroke="currentColor" id="C4" stroke-width="0.25mm"/>
    <circle cx="132" cy="5" r="1.525000000000006" color="rgb(0,0,0)" stroke="currentColor" id="C5" stroke-width="0.25mm"/>
    <circle cx="68" cy="5" r="1.524999999999991" color="rgb(0,0,0)" stroke="currentColor" id="C6" stroke-width="0.25mm"/>
    <line x1="116" y1="7.5" x2="116" y2="5" color="rgb(0,0,0)" stroke="currentColor" id="C7" stroke-width="0.25mm"/>
    <line x1="106" y1="7.5" x2="116" y2="7.5" color="rgb(0,0,0)" stroke="currentColor" id="C8" stroke-width="0.25mm"/>
    <line x1="106" y1="5" x2="106" y2="7.5" color="rgb(0,0,0)" stroke="currentColor" id="C9" stroke-width="0.25mm"/>
    <line x1="116" y1="5" x2="106" y2="5" color="rgb(0,0,0)" stroke="currentColor" id="CA" stroke-width="0.25mm"/>
    <line x1="82" y1="7.5" x2="92" y2="7.5" color="rgb(0,0,0)" stroke="currentColor" id="CB" stroke-width="0.25mm"/>
    <line x1="82" y1="5" x2="82" y2="7.5" color="rgb(0,0,0)" stroke="currentColor" id="CC" stroke-width="0.25mm"/>
    <line x1="92" y1="5" x2="82" y2="5" color="rgb(0,0,0)" stroke="currentColor" id="CD" stroke-width="0.25mm"/>
    <line x1="92" y1="7.5" x2="92" y2="5" color="rgb(0,0,0)" stroke="currentColor" id="CE" stroke-width="0.25mm"/>
    <line x1="80" y1="23" x2="80" y2="16" color="rgb(0,0,0)" stroke="currentColor" id="CF" stroke-width="0.25mm"/>
    <line x1="80" y1="16" x2="120" y2="16" color="rgb(0,0,0)" stroke="currentColor" id="D0" stroke-width="0.25mm"/>
    <line x1="120" y1="16" x2="120" y2="23" color="rgb(0,0,0)" stroke="currentColor" id="D1" stroke-width="0.25mm"/>
    <line x1="120" y1="23" x2="80" y2="23" color="rgb(0,0,0)" stroke="currentColor" id="D2" stroke-width="0.25mm"/>
    <line x1="23" y1="180" x2="177" y2="180" color="rgb(0,0,0)" stroke="currentColor" id="D3" stroke-width="0.25mm"/>
    <line x1="177" y1="180" x2="177" y2="105" color="rgb(0,0,0)" stroke="currentColor" id="D4" stroke-width="0.25mm"/>
    <line x1="177" y1="105" x2="200" y2="105" color="rgb(0,0,0)" stroke="currentColor" id="D5" stroke-width="0.25mm"/>
    <line x1="200" y1="105" x2="200" y2="31.2514250603" color="rgb(0,0,0)" stroke="currentColor" id="D6" stroke-width="0.25mm"/>
    <line x1="160" y1="0" x2="200" y2="31.2514250603" color="rgb(0,0,0)" stroke="currentColor" id="D7" stroke-width="0.25mm"/>
    <line x1="160" y1="0" x2="40" y2="0" color="rgb(0,0,0)" stroke="currentColor" id="D8" stroke-width="0.25mm"/>
    <line x1="0" y1="31.2514250603" x2="40" y2="0" color="rgb(0,0,0)" stroke="currentColor" id="D9" stroke-width="0.25mm"/>
    <line x1="0" y1="31.2514250603" x2="0" y2="105" color="rgb(0,0,0)" stroke="currentColor" id="DA" stroke-width="0.25mm"/>
    <line x1="0" y1="105" x2="23" y2="105" color="rgb(0,0,0)" stroke="currentColor" id="DB" stroke-width="0.25mm"/>
    <line x1="23" y1="105" x2="23" y2="180" color="rgb(0,0,0)" stroke="currentColor" id="DC" stroke-width="0.25mm"/>
    <line x1="192.5" y1="100" x2="192.5" y2="91" color="rgb(0,0,0)" stroke="currentColor" id="DD" stroke-width="0.25mm"/>
    <line x1="192.5" y1="91" x2="195" y2="91" color="rgb(0,0,0)" stroke="currentColor" id="DE" stroke-width="0.25mm"/>
    <line x1="195" y1="91" x2="195" y2="100" color="rgb(0,0,0)" stroke="currentColor" id="DF" stroke-width="0.25mm"/>
    <line x1="195" y1="100" x2="192.5" y2="100" color="rgb(0,0,0)" stroke="currentColor" id="E0" stroke-width="0.25mm"/>
    <line x1="5" y1="78" x2="7.5" y2="78" color="rgb(0,0,0)" stroke="currentColor" id="E1" stroke-width="0.25mm"/>
    <line x1="7.5" y1="78" x2="7.5" y2="87" color="rgb(0,0,0)" stroke="currentColor" id="E2" stroke-width="0.25mm"/>
    <line x1="7.5" y1="87" x2="5" y2="87" color="rgb(0,0,0)" stroke="currentColor" id="E3" stroke-width="0.25mm"/>
    <line x1="5" y1="87" x2="5" y2="78" color="rgb(0,0,0)" stroke="currentColor" id="E4" stroke-width="0.25mm"/>
    <line x1="5" y1="100" x2="5" y2="91" color="rgb(0,0,0)" stroke="currentColor" id="E5" stroke-width="0.25mm"/>
    <line x1="5" y1="91" x2="7.5" y2="91" color="rgb(0,0,0)" stroke="currentColor" id="E6" stroke-width="0.25mm"/>
    <line x1="7.5" y1="91" x2="7.5" y2="100" color="rgb(0,0,0)" stroke="currentColor" id="E7" stroke-width="0.25mm"/>
    <line x1="7.5" y1="100" x2="5" y2="100" color="rgb(0,0,0)" stroke="currentColor" id="E8" stroke-width="0.25mm"/>
    <line x1="192.5" y1="78" x2="195" y2="78" color="rgb(0,0,0)" stroke="currentColor" id="E9" stroke-width="0.25mm"/>
    <line x1="195" y1="78" x2="195" y2="87" color="rgb(0,0,0)" stroke="currentColor" id="EA" stroke-width="0.25mm"/>
    <line x1="195" y1="87" x2="192.5" y2="87" color="rgb(0,0,0)" stroke="currentColor" id="EB" stroke-width="0.25mm"/>
    <line x1="192.5" y1="87" x2="192.5" y2="78" color="rgb(0,0,0)" stroke="currentColor" id="EC" stroke-width="0.25mm"/>
    <line x1="161" y1="117.5" x2="161" y2="122.5" color="rgb(0,0,0)" stroke="currentColor" id="ED" stroke-width="0.25mm"/>
    <line x1="161" y1="122.5" x2="141" y2="122.5" color="rgb(0,0,0)" stroke="currentColor" id="EE" stroke-width="0.25mm"/>
    <line x1="141" y1="122.5" x2="141" y2="117.5" color="rgb(0,0,0)" stroke="currentColor" id="EF" stroke-width="0.25mm"/>
    <line x1="141" y1="117.5" x2="161" y2="117.5" color="rgb(0,0,0)" stroke="currentColor" id="F0" stroke-width="0.25mm"/>
    <line x1="39" y1="122.5" x2="39" y2="117.5" color="rgb(0,0,0)" stroke="currentColor" id="F1" stroke-width="0.25mm"/>
    <line x1="39" y1="117.5" x2="59" y2="117.5" color="rgb(0,0,0)" stroke="currentColor" id="F2" stroke-width="0.25mm"/>
    <line x1="59" y1="117.5" x2="59" y2="122.5" color="rgb(0,0,0)" stroke="currentColor" id="F3" stroke-width="0.25mm"/>
    <line x1="59" y1="122.5" x2="39" y2="122.5" color="rgb(0,0,0)" stroke="currentColor" id="F4" stroke-width="0.25mm"/>
    <line x1="145" y1="102" x2="145" y2="90" color="rgb(0,0,0)" stroke="currentColor" id="F5" stroke-width="0.25mm"/>
    <line x1="145" y1="90" x2="150" y2="90" color="rgb(0,0,0)" stroke="currentColor" id="F6" stroke-width="0.25mm"/>
    <line x1="150" y1="90" x2="150" y2="102" color="rgb(0,0,0)" stroke="currentColor" id="F7" stroke-width="0.25mm"/>
    <line x1="150" y1="102" x2="145" y2="102" color="rgb(0,0,0)" stroke="currentColor" id="F8" stroke-width="0.25mm"/>
   </g>
  </g>
 </svg>